<svg width="114" height="26" viewBox="0 0 114 26" fill="none" xmlns="http://www.w3.org/2000/svg">
<path d="M14.0431 18.4492C12.9906 18.4492 11.6374 20.2746 11.6374 21.4294H9.68285C9.04385 21.4294 8.48003 22.0254 8.48003 22.7332C8.48003 23.4782 9.00626 23.9998 9.68285 23.9998H18.1402C23.0266 24.037 24.3422 19.6785 23.9287 16.6239C23.9287 16.6239 19.7565 21.0196 18.6288 21.0196C18.6664 16.4748 15.2835 12.1909 13.0658 10.2165C11.8254 9.09894 11.4871 6.15603 11.4871 6.15603V4.59145C11.4871 2.98961 11.3743 1.27602 11.036 1.0525C10.4346 0.642731 9.38214 2.7661 8.51762 2.7661C4.11981 2.7661 4.75881 5.74626 3.81911 5.74626H1.82694C1 5.74626 1 6.4168 1 6.86382C1.07518 8.09314 1.71417 9.09894 4.75881 9.09894C5.51057 9.09894 6.6758 10.142 6.6758 12.0419V21.7646H6.26233C5.84886 21.7646 5.51057 22.0999 5.51057 22.5097V23.2547C5.51057 23.6645 5.84886 23.9998 6.26233 23.9998H12.1825M8.85591 16.9591V20.2373M1.37588 8.01864H3.63117" stroke="#6B6C6E" stroke-width="2" stroke-linejoin="round"/>
<path d="M34.4766 14.7578H31.5156V13.2031H34.4766C34.9922 13.2031 35.4089 13.1198 35.7266 12.9531C36.0443 12.7865 36.276 12.5573 36.4219 12.2656C36.5729 11.9688 36.6484 11.6302 36.6484 11.25C36.6484 10.8906 36.5729 10.5547 36.4219 10.2422C36.276 9.92448 36.0443 9.66927 35.7266 9.47656C35.4089 9.28385 34.9922 9.1875 34.4766 9.1875H32.1172V19H30.1562V7.625H34.4766C35.3568 7.625 36.1042 7.78125 36.7188 8.09375C37.3385 8.40104 37.8099 8.82812 38.1328 9.375C38.4557 9.91667 38.6172 10.5365 38.6172 11.2344C38.6172 11.9688 38.4557 12.599 38.1328 13.125C37.8099 13.651 37.3385 14.0547 36.7188 14.3359C36.1042 14.6172 35.3568 14.7578 34.4766 14.7578ZM45.4234 17.0078V10.5469H47.3141V19H45.5328L45.4234 17.0078ZM45.6891 15.25L46.3219 15.2344C46.3219 15.8021 46.2594 16.3255 46.1344 16.8047C46.0094 17.2786 45.8167 17.6927 45.5562 18.0469C45.2958 18.3958 44.9625 18.6693 44.5562 18.8672C44.15 19.0599 43.663 19.1562 43.0953 19.1562C42.6839 19.1562 42.3062 19.0964 41.9625 18.9766C41.6187 18.8568 41.3219 18.6719 41.0719 18.4219C40.8271 18.1719 40.637 17.8464 40.5016 17.4453C40.3661 17.0443 40.2984 16.5651 40.2984 16.0078V10.5469H42.1812V16.0234C42.1812 16.3307 42.2177 16.5885 42.2906 16.7969C42.3635 17 42.4625 17.1641 42.5875 17.2891C42.7125 17.4141 42.8583 17.5026 43.025 17.5547C43.1917 17.6068 43.3687 17.6328 43.5562 17.6328C44.0927 17.6328 44.5146 17.5286 44.8219 17.3203C45.1344 17.1068 45.3557 16.8203 45.4859 16.4609C45.6214 16.1016 45.6891 15.6979 45.6891 15.25ZM51.2844 12.1719V22.25H49.4016V10.5469H51.1359L51.2844 12.1719ZM56.7922 14.6953V14.8594C56.7922 15.474 56.7193 16.0443 56.5734 16.5703C56.4328 17.0911 56.2219 17.5469 55.9406 17.9375C55.6646 18.3229 55.3234 18.6224 54.9172 18.8359C54.5109 19.0495 54.0422 19.1562 53.5109 19.1562C52.9849 19.1562 52.524 19.0599 52.1281 18.8672C51.7375 18.6693 51.4068 18.3906 51.1359 18.0312C50.8651 17.6719 50.6464 17.25 50.4797 16.7656C50.3182 16.276 50.2036 15.7396 50.1359 15.1562V14.5234C50.2036 13.9036 50.3182 13.3411 50.4797 12.8359C50.6464 12.3307 50.8651 11.8958 51.1359 11.5312C51.4068 11.1667 51.7375 10.8854 52.1281 10.6875C52.5187 10.4896 52.9745 10.3906 53.4953 10.3906C54.0266 10.3906 54.4979 10.4948 54.9094 10.7031C55.3208 10.9062 55.6672 11.1979 55.9484 11.5781C56.2297 11.9531 56.4406 12.4062 56.5812 12.9375C56.7219 13.4635 56.7922 14.0495 56.7922 14.6953ZM54.9094 14.8594V14.6953C54.9094 14.3047 54.8729 13.9427 54.8 13.6094C54.7271 13.2708 54.6125 12.974 54.4562 12.7188C54.3 12.4635 54.0995 12.2656 53.8547 12.125C53.6151 11.9792 53.326 11.9062 52.9875 11.9062C52.6542 11.9062 52.3677 11.9635 52.1281 12.0781C51.8885 12.1875 51.688 12.3411 51.5266 12.5391C51.3651 12.737 51.2401 12.9688 51.1516 13.2344C51.063 13.4948 51.0005 13.7786 50.9641 14.0859V15.6016C51.0266 15.9766 51.1333 16.3203 51.2844 16.6328C51.4354 16.9453 51.649 17.1953 51.925 17.3828C52.2062 17.5651 52.5656 17.6562 53.0031 17.6562C53.3417 17.6562 53.6307 17.5833 53.8703 17.4375C54.1099 17.2917 54.3052 17.0911 54.4562 16.8359C54.6125 16.5755 54.7271 16.276 54.8 15.9375C54.8729 15.599 54.9094 15.2396 54.9094 14.8594ZM60.4344 12.1719V22.25H58.5516V10.5469H60.2859L60.4344 12.1719ZM65.9422 14.6953V14.8594C65.9422 15.474 65.8693 16.0443 65.7234 16.5703C65.5828 17.0911 65.3719 17.5469 65.0906 17.9375C64.8146 18.3229 64.4734 18.6224 64.0672 18.8359C63.6609 19.0495 63.1922 19.1562 62.6609 19.1562C62.1349 19.1562 61.674 19.0599 61.2781 18.8672C60.8875 18.6693 60.5568 18.3906 60.2859 18.0312C60.0151 17.6719 59.7964 17.25 59.6297 16.7656C59.4682 16.276 59.3536 15.7396 59.2859 15.1562V14.5234C59.3536 13.9036 59.4682 13.3411 59.6297 12.8359C59.7964 12.3307 60.0151 11.8958 60.2859 11.5312C60.5568 11.1667 60.8875 10.8854 61.2781 10.6875C61.6688 10.4896 62.1245 10.3906 62.6453 10.3906C63.1766 10.3906 63.6479 10.4948 64.0594 10.7031C64.4708 10.9062 64.8172 11.1979 65.0984 11.5781C65.3797 11.9531 65.5906 12.4062 65.7313 12.9375C65.8719 13.4635 65.9422 14.0495 65.9422 14.6953ZM64.0594 14.8594V14.6953C64.0594 14.3047 64.0229 13.9427 63.95 13.6094C63.8771 13.2708 63.7625 12.974 63.6063 12.7188C63.45 12.4635 63.2495 12.2656 63.0047 12.125C62.7651 11.9792 62.476 11.9062 62.1375 11.9062C61.8042 11.9062 61.5177 11.9635 61.2781 12.0781C61.0385 12.1875 60.838 12.3411 60.6766 12.5391C60.5151 12.737 60.3901 12.9688 60.3016 13.2344C60.213 13.4948 60.1505 13.7786 60.1141 14.0859V15.6016C60.1766 15.9766 60.2833 16.3203 60.4344 16.6328C60.5854 16.9453 60.799 17.1953 61.075 17.3828C61.3563 17.5651 61.7156 17.6562 62.1531 17.6562C62.4917 17.6562 62.7807 17.5833 63.0203 17.4375C63.2599 17.2917 63.4552 17.0911 63.6063 16.8359C63.7625 16.5755 63.8771 16.276 63.95 15.9375C64.0229 15.599 64.0594 15.2396 64.0594 14.8594ZM70.0531 18.0781L72.35 10.5469H74.3656L70.975 20.2891C70.8969 20.4974 70.7953 20.724 70.6703 20.9688C70.5453 21.2135 70.3812 21.4453 70.1781 21.6641C69.9802 21.888 69.7328 22.0677 69.4359 22.2031C69.1391 22.3438 68.7797 22.4141 68.3578 22.4141C68.1911 22.4141 68.0297 22.3984 67.8734 22.3672C67.7224 22.3411 67.5792 22.3125 67.4437 22.2812L67.4359 20.8438C67.488 20.849 67.5505 20.8542 67.6234 20.8594C67.7016 20.8646 67.7641 20.8672 67.8109 20.8672C68.1234 20.8672 68.3839 20.8281 68.5922 20.75C68.8005 20.6771 68.9698 20.5573 69.1 20.3906C69.2354 20.224 69.35 20 69.4437 19.7188L70.0531 18.0781ZM68.7562 10.5469L70.7641 16.875L71.1 18.8594L69.7953 19.1953L66.725 10.5469H68.7562ZM87.0406 17.4453V19H81.3297V17.4453H87.0406ZM81.8766 7.625V19H79.9156V7.625H81.8766ZM88.1594 14.8672V14.6875C88.1594 14.0781 88.2479 13.513 88.425 12.9922C88.6021 12.4661 88.8573 12.0104 89.1906 11.625C89.5292 11.2344 89.9406 10.9323 90.425 10.7188C90.9146 10.5 91.4667 10.3906 92.0812 10.3906C92.701 10.3906 93.2531 10.5 93.7375 10.7188C94.2271 10.9323 94.6411 11.2344 94.9797 11.625C95.3182 12.0104 95.576 12.4661 95.7531 12.9922C95.9302 13.513 96.0187 14.0781 96.0187 14.6875V14.8672C96.0187 15.4766 95.9302 16.0417 95.7531 16.5625C95.576 17.0833 95.3182 17.5391 94.9797 17.9297C94.6411 18.3151 94.2297 18.6172 93.7453 18.8359C93.2609 19.0495 92.7115 19.1562 92.0969 19.1562C91.4771 19.1562 90.9224 19.0495 90.4328 18.8359C89.9484 18.6172 89.537 18.3151 89.1984 17.9297C88.8599 17.5391 88.6021 17.0833 88.425 16.5625C88.2479 16.0417 88.1594 15.4766 88.1594 14.8672ZM90.0422 14.6875V14.8672C90.0422 15.2474 90.0812 15.6068 90.1594 15.9453C90.2375 16.2839 90.3599 16.5807 90.5266 16.8359C90.6932 17.0911 90.9068 17.2917 91.1672 17.4375C91.4276 17.5833 91.7375 17.6562 92.0969 17.6562C92.4458 17.6562 92.7479 17.5833 93.0031 17.4375C93.2635 17.2917 93.4771 17.0911 93.6437 16.8359C93.8104 16.5807 93.9328 16.2839 94.0109 15.9453C94.0943 15.6068 94.1359 15.2474 94.1359 14.8672V14.6875C94.1359 14.3125 94.0943 13.9583 94.0109 13.625C93.9328 13.2865 93.8078 12.987 93.6359 12.7266C93.4693 12.4661 93.2557 12.263 92.9953 12.1172C92.7401 11.9661 92.4354 11.8906 92.0812 11.8906C91.7271 11.8906 91.4198 11.9661 91.1594 12.1172C90.9042 12.263 90.6932 12.4661 90.5266 12.7266C90.3599 12.987 90.2375 13.2865 90.1594 13.625C90.0812 13.9583 90.0422 14.3125 90.0422 14.6875ZM100.372 17.5078L102.442 10.5469H104.395L101.458 19H100.239L100.372 17.5078ZM98.7859 10.5469L100.895 17.5391L100.997 19H99.7781L96.825 10.5469H98.7859ZM109.327 19.1562C108.702 19.1562 108.136 19.0547 107.631 18.8516C107.131 18.6432 106.704 18.3542 106.35 17.9844C106.001 17.6146 105.733 17.1797 105.545 16.6797C105.358 16.1797 105.264 15.6406 105.264 15.0625V14.75C105.264 14.0885 105.36 13.4896 105.553 12.9531C105.746 12.4167 106.014 11.9583 106.358 11.5781C106.702 11.1927 107.108 10.8984 107.577 10.6953C108.045 10.4922 108.553 10.3906 109.1 10.3906C109.704 10.3906 110.233 10.4922 110.686 10.6953C111.139 10.8984 111.514 11.1849 111.811 11.5547C112.113 11.9193 112.337 12.3542 112.483 12.8594C112.634 13.3646 112.709 13.9219 112.709 14.5312V15.3359H106.178V13.9844H110.85V13.8359C110.84 13.4974 110.772 13.1797 110.647 12.8828C110.527 12.5859 110.342 12.3464 110.092 12.1641C109.842 11.9818 109.509 11.8906 109.092 11.8906C108.78 11.8906 108.501 11.9583 108.256 12.0938C108.017 12.224 107.816 12.4141 107.655 12.6641C107.493 12.9141 107.368 13.2161 107.28 13.5703C107.196 13.9193 107.155 14.3125 107.155 14.75V15.0625C107.155 15.4323 107.204 15.776 107.303 16.0938C107.407 16.4062 107.558 16.6797 107.756 16.9141C107.954 17.1484 108.194 17.3333 108.475 17.4688C108.756 17.599 109.077 17.6641 109.436 17.6641C109.889 17.6641 110.293 17.5729 110.647 17.3906C111.001 17.2083 111.308 16.9505 111.569 16.6172L112.561 17.5781C112.379 17.8438 112.142 18.099 111.85 18.3438C111.558 18.5833 111.202 18.7786 110.78 18.9297C110.363 19.0807 109.879 19.1562 109.327 19.1562Z" fill="#6B6C6E"/>
</svg>
